# xmcd
#
# Track frame offsets:
#	150
#	17150
#	32137
#	48947
#	66780
#	83415
#	101007
#	118730
#	133252
#	147902
#
# Disc length: 2298 seconds
#
# Revision: 4
# Processed by: cddbd v1.5.2PL0 Copyright (c) Steve Scherf et al.
# Submitted via: EasyCDDAExtractor 16.0.1.1
#
DISCID=8608f80a
DTITLE=Joe Diffie - In Another World
DYEAR=2001
DGENRE=Country
TTITLE0=In Another World
TTITLE1=My Give A Damn's Busted
TTITLE2=If I Lost Her
TTITLE3=Stoned On Her Love
TTITLE4=Hollow Deep As Mine
TTITLE5=This Pretender
TTITLE6=Like A River Dreams Of Rain
TTITLE7=Live To Love Another Day
TTITLE8=What A Way To Go
TTITLE9=The Grandpa That I Know
EXTD=
EXTT0=
EXTT1=
EXTT2=
EXTT3=
EXTT4=
EXTT5=
EXTT6=
EXTT7=
EXTT8=
EXTT9=
PLAYORDER=
